<svg width="1200" height="146" viewBox="0 0 1200 146" fill="none" xmlns="http://www.w3.org/2000/svg">
<g clip-path="url(#clip0_12061_4964)">
<path d="M-0.000650387 19.3527C-0.000650387 13.5398 1.88735 8.86112 5.66335 5.31667C9.43935 1.77222 14.3513 0 20.3993 0C26.3994 0 31.2873 1.77222 35.0634 5.31667C38.8394 8.86112 40.7514 13.5398 40.7994 19.3527C40.9125 21.9753 40.4659 24.592 39.4882 27.0341C38.5105 29.4762 37.0236 31.6893 35.1234 33.5305C31.3074 37.1064 26.3994 38.8905 20.3993 38.8826C14.3994 38.8747 9.48735 37.0749 5.66335 33.4832C3.77081 31.6469 2.28926 29.4411 1.31383 27.0076C0.338399 24.5741 -0.109345 21.9666 -0.000650387 19.3527ZM3.35935 50.9219H37.3674V143.172H3.35935V50.9219Z" fill="#EE284B"/>
<path d="M290.159 145.783C282.598 145.884 275.077 144.684 267.935 142.239C261.625 140.059 255.805 136.692 250.799 132.326C246.004 128.053 242.198 122.815 239.639 116.967C236.921 110.655 235.564 103.855 235.655 96.9995C235.574 90.1984 236.931 83.455 239.639 77.1979C242.21 71.3256 246.013 66.0551 250.799 61.7323C255.789 57.3149 261.634 53.9353 267.983 51.796C282.406 47.1461 297.96 47.1461 312.383 51.796C318.73 53.9325 324.571 57.3126 329.555 61.7323C334.334 66.0293 338.112 71.293 340.631 77.1625C343.283 83.4338 344.61 90.1713 344.531 96.9641C344.629 103.822 343.306 110.628 340.643 116.967C338.141 122.825 334.359 128.068 329.567 132.326C324.557 136.712 318.723 140.092 312.395 142.274C305.247 144.708 297.722 145.895 290.159 145.783ZM268.907 96.9641C268.907 103.265 270.887 108.35 274.847 112.217C276.854 114.179 279.248 115.716 281.882 116.732C284.515 117.748 287.332 118.222 290.159 118.124C296.423 118.124 301.503 116.155 305.399 112.217C309.295 108.279 311.243 103.194 311.243 96.9641C311.35 94.1915 310.888 91.4261 309.884 88.8336C308.88 86.2411 307.354 83.8748 305.399 81.8766C301.503 77.9383 296.423 75.9692 290.159 75.9692C287.335 75.8503 284.517 76.3106 281.883 77.3209C279.249 78.3311 276.857 79.8692 274.859 81.8377C272.861 83.8061 271.3 86.162 270.275 88.7557C269.251 91.3495 268.785 94.1246 268.907 96.905V96.9641Z" fill="#EE284B"/>
<path d="M422.292 145.785C416.095 145.859 409.938 144.797 404.136 142.654C398.826 140.656 393.942 137.699 389.736 133.934L386.376 143.173H361.896V14.1792H395.904V55.6256C399.652 53.2645 403.726 51.4461 408 50.2262C412.634 48.918 417.435 48.2695 422.256 48.3004C428.924 48.2184 435.545 49.4225 441.744 51.8449C447.452 54.1037 452.612 57.5216 456.888 61.8756C461.16 66.3079 464.5 71.5277 466.716 77.2349C469.165 83.5222 470.387 90.2084 470.316 96.9421C470.38 103.702 469.159 110.414 466.716 116.732C464.513 122.467 461.172 127.713 456.888 132.162C452.612 136.516 447.452 139.934 441.744 142.193C435.56 144.627 428.952 145.847 422.292 145.785ZM394.692 96.9657C394.692 103.267 396.608 108.351 400.44 112.219C404.272 116.086 409.38 118.055 415.764 118.126C422.164 118.126 427.272 116.157 431.088 112.219C434.904 108.28 436.808 103.196 436.8 96.9657C436.8 90.7983 434.884 85.7692 431.052 81.8782C427.22 77.9871 422.112 76.018 415.728 75.9707C409.328 75.9707 404.22 77.9399 400.404 81.8782C396.588 85.8164 394.676 90.8456 394.668 96.9657H394.692Z" fill="#EE284B"/>
<path d="M484.402 19.3527C484.402 13.5398 486.29 8.86112 490.066 5.31667C493.842 1.77222 498.742 0 504.766 0C510.79 0 515.69 1.77222 519.466 5.31667C523.242 8.86112 525.134 13.5398 525.142 19.3527C525.255 21.9753 524.809 24.592 523.831 27.0341C522.853 29.4762 521.366 31.6893 519.466 33.5305C515.69 37.1301 510.79 38.9299 504.766 38.9299C498.742 38.9299 493.842 37.1301 490.066 33.5305C488.168 31.6887 486.682 29.4752 485.707 27.0331C484.731 24.591 484.287 21.9745 484.402 19.3527ZM487.762 50.9219H521.77V143.172H487.762V50.9219Z" fill="#EE284B"/>
<path d="M545.628 14.1792H579.6V143.173H545.628V14.1792Z" fill="#EE284B"/>
<path d="M600.133 19.3527C600.133 13.5398 602.021 8.86112 605.797 5.31667C609.573 1.77222 614.477 0 620.509 0C626.517 0 631.417 1.77222 635.209 5.31667C637.101 7.13335 638.584 9.32219 639.56 11.7406C640.535 14.159 640.983 16.7527 640.873 19.3527C640.985 21.9741 640.539 24.5898 639.564 27.0315C638.589 29.4732 637.105 31.6869 635.209 33.5305C631.425 37.1301 626.525 38.9299 620.509 38.9299C614.493 38.9299 609.589 37.1301 605.797 33.5305C603.898 31.6887 602.413 29.4752 601.437 27.0331C600.462 24.591 600.017 21.9745 600.133 19.3527ZM603.505 50.9219H637.513V143.172H603.505V50.9219Z" fill="#EE284B"/>
<path d="M692.542 145.322C681.67 145.322 673.05 142.735 666.683 137.56C660.315 132.385 657.115 125.265 657.083 116.199C657.083 107.716 659.942 100.887 665.662 95.712C671.382 90.5371 679.094 87.93 688.798 87.8906H720.322V82.7039C720.345 81.2273 719.998 79.7679 719.314 78.4537C718.63 77.1395 717.629 76.0106 716.398 75.166C713.605 73.1433 710.204 72.0994 706.738 72.2005C703.62 72.1091 700.553 72.9944 697.978 74.7289C696.833 75.4645 695.853 76.424 695.099 77.5479C694.346 78.6718 693.835 79.9361 693.598 81.2625H661.714C663.13 70.574 667.646 62.3903 675.262 56.7113C682.878 51.0323 693.302 48.2125 706.534 48.2519C721.638 48.2519 733.238 51.7963 741.334 58.8852C749.43 65.9741 753.474 76.1467 753.466 89.4029V143.113H729.022L725.302 133C721.232 136.991 716.343 140.08 710.962 142.062C705.08 144.259 698.834 145.364 692.542 145.322ZM690.406 114.604C690.369 115.849 690.66 117.083 691.251 118.184C691.842 119.286 692.713 120.218 693.778 120.889C696.429 122.512 699.517 123.303 702.634 123.158C707.388 123.316 712.02 121.656 715.558 118.526C717.27 116.969 718.615 115.062 719.502 112.94C720.389 110.818 720.796 108.532 720.694 106.239H702.274C699.229 106.065 696.202 106.811 693.598 108.378C692.566 109.056 691.73 109.987 691.171 111.077C690.612 112.168 690.348 113.383 690.406 114.604Z" fill="#EE284B"/>
<path d="M775.31 50.9212H799.754L804.002 62.4288C806.724 58.547 810.5 55.4969 814.898 53.6268C820.121 51.6604 825.69 50.7406 831.278 50.9212H842.258V80.919H831.458C823.778 80.919 818.178 82.7503 814.658 86.4129C811.138 90.0755 809.366 95.8569 809.342 103.757V143.171H775.31V50.9212Z" fill="#EE284B"/>
<path d="M901.825 145.782C894.523 145.869 887.265 144.669 880.393 142.238C874.192 140.028 868.504 136.617 863.665 132.207C858.971 127.875 855.258 122.617 852.769 116.777C850.111 110.511 848.784 103.777 848.869 96.987C848.784 90.1937 850.111 83.4551 852.769 77.1854C855.249 71.3605 858.964 66.1241 863.665 61.8261C868.543 57.4547 874.253 54.0776 880.465 51.8899C887.367 49.4628 894.652 48.2626 901.981 48.3454C909.737 48.2307 917.44 49.6239 924.649 52.4452C931.114 54.9965 936.922 58.9312 941.653 63.9646C946.395 69.1364 949.933 75.2653 952.021 81.9231C954.39 89.5085 955.321 97.4583 954.769 105.376H882.529C883.825 110.495 886.273 114.304 889.873 116.801C893.589 119.322 898.021 120.621 902.533 120.51C905.997 120.548 909.434 119.897 912.637 118.596C915.503 117.457 918.053 115.663 920.077 113.362H953.017C949.28 123.22 942.417 131.631 933.445 137.346C924.533 142.978 913.993 145.79 901.825 145.782ZM922.381 87.1926C921.136 83.1526 918.613 79.6094 915.181 77.0791C911.429 74.6925 907.06 73.4161 902.593 73.4015C898.126 73.3868 893.749 74.6345 889.981 76.9964C886.419 79.4695 883.824 83.0672 882.625 87.1926H922.381Z" fill="#EE284B"/>
<path d="M982.009 145.44C976.329 145.44 971.753 143.723 968.281 140.289C964.905 136.778 963.024 132.127 963.024 127.293C963.024 122.458 964.905 117.807 968.281 114.296C971.761 110.87 976.337 109.157 982.009 109.157C984.504 109.06 986.992 109.466 989.322 110.35C991.652 111.234 993.773 112.577 995.557 114.296C998.914 117.817 1000.78 122.464 1000.78 127.293C1000.78 132.122 998.914 136.769 995.557 140.289C993.776 142.013 991.654 143.359 989.324 144.245C986.995 145.131 984.505 145.537 982.009 145.44Z" fill="#EE284B"/>
<path d="M1017.5 50.9205H1041.95L1046.21 62.4281C1048.92 58.5445 1052.7 55.4936 1057.09 53.6261C1061.4 51.8145 1066.87 50.9126 1073.48 50.9205H1084.46V80.9183H1073.66C1065.99 80.9183 1060.39 82.7496 1056.86 86.4122C1053.34 90.0748 1051.56 95.8562 1051.55 103.756V143.171H1017.5V50.9205Z" fill="#EE284B"/>
<path d="M1145.63 145.782C1138.06 145.883 1130.54 144.683 1123.39 142.238C1117.07 140.066 1111.23 136.699 1106.22 132.325C1101.42 128.059 1097.61 122.819 1095.06 116.966C1092.33 110.655 1090.98 103.855 1091.08 96.9987C1090.99 90.197 1092.35 83.4524 1095.06 77.197C1097.63 71.3327 1101.43 66.0729 1106.22 61.7669C1111.2 57.3472 1117.04 53.9671 1123.39 51.8306C1137.83 47.1678 1153.41 47.1678 1167.85 51.8306C1174.2 53.9698 1180.05 57.3495 1185.04 61.7669C1189.81 66.0645 1193.58 71.3283 1196.1 77.197C1198.75 83.4558 1200.08 90.1819 1200 96.9633C1200.1 103.823 1198.77 110.63 1196.1 116.966C1193.6 122.823 1189.82 128.067 1185.04 132.325C1180.02 136.709 1174.18 140.088 1167.85 142.273C1160.71 144.707 1153.19 145.894 1145.63 145.782ZM1124.4 96.9633C1124.4 103.264 1126.38 108.349 1130.34 112.216C1132.35 114.18 1134.74 115.717 1137.38 116.733C1140.02 117.749 1142.83 118.222 1145.66 118.124C1151.91 118.124 1156.99 116.154 1160.89 112.216C1164.8 108.278 1166.74 103.194 1166.74 96.9633C1166.85 94.1903 1166.38 91.4242 1165.38 88.8313C1164.38 86.2384 1162.85 83.8724 1160.89 81.8757C1157 77.9374 1151.92 75.9683 1145.66 75.9683C1142.83 75.8472 1140.01 76.3078 1137.37 77.3209C1134.73 78.3339 1132.33 79.8771 1130.33 81.8522C1128.33 83.8273 1126.77 86.191 1125.75 88.7927C1124.73 91.3943 1124.27 94.1769 1124.4 96.9633Z" fill="#EE284B"/>
<path d="M171.72 48.2979L123.6 81.7811V143.218H157.608V120.416C157.608 116.727 159.096 113.19 161.745 110.582C164.393 107.975 167.986 106.509 171.732 106.509C175.478 106.509 179.07 107.975 181.719 110.582C184.368 113.19 185.856 116.727 185.856 120.416V143.218H219.864V81.7811L171.72 48.2979Z" fill="#971C33"/>
<path d="M109.453 48.2979L61.3208 81.7811V143.218H95.3288V107.514C95.3288 103.822 96.8181 100.282 99.4692 97.6723C102.12 95.0622 105.716 93.5959 109.465 93.5959C113.214 93.5959 116.809 95.0622 119.46 97.6723C122.111 100.282 123.601 103.822 123.601 107.514V143.147H157.609V81.7102L109.453 48.2979Z" fill="#EE284B"/>
</g>
<defs>
<clipPath id="clip0_12061_4964">
<rect width="1200" height="145.783" fill="white"/>
</clipPath>
</defs>
</svg>
