<svg data-name="Réteg 1" id="a" viewBox="0 0 3574.28 643.89" xmlns="http://www.w3.org/2000/svg">
<g>
<path class="logo-first-part" d="M925.9,150.93c-24.44,114.2-48.88,228.4-73.32,342.6-.99,4.61-5.06,7.91-9.78,7.91h-110.28c-6.42,0-11.17-5.96-9.75-12.22l9.63-42.35c.12-.51-.07-1.05-.47-1.38-.58-.48-1.43-.4-1.92,.16-37.64,42.82-83.95,64.29-138.91,64.29-33.3,0-58.2-8.5-74.7-25.5s-24.8-37.4-24.8-61.4c0-15.7,4.8-45.8,14.4-90.2l40.68-186.23c1-4.59,5.07-7.87,9.77-7.87h118.65c6.37,0,11.12,5.88,9.77,12.11l-35.68,164.99c-5.5,26-8.6,41.1-9.4,45.3-.8,4.2-1.2,9.4-1.2,15.6v1c0,19.6,8.9,29.4,26.7,29.4,21,0,39.1-9.6,54.5-28.7,15.4-19.1,26.9-46.6,34.7-82.4l32.1-149.3c.99-4.61,5.06-7.9,9.78-7.9h119.76c6.37,0,11.11,5.87,9.78,12.09h-.01Z" fill="#1177BB"></path>
<path class="logo-first-part" d="M1122.7,140.28c-1.82,8.58,7.48,15.14,14.99,10.61,8.72-5.27,17.2-9.39,25.39-12.35,14.5-5.2,32.6-7.9,54.5-7.9,41.7,0,73.2,14.1,94.5,42.4,21.3,28.3,32,64.7,32,109.4,0,57.4-16,109.7-47.9,156.9-31.9,47.2-74.1,70.8-126.5,70.8-46.03,0-81.96-16.49-107.79-49.42-5.18-6.6-15.74-4.13-17.57,4.06l-6.49,29.04c-1.02,4.57-5.08,7.82-9.76,7.82h-109.14c-6.36,0-11.11-5.86-9.78-12.08L1011.59,8.36c.98-4.62,5.06-7.92,9.78-7.92h118.66c6.36,0,11.1,5.86,9.78,12.08l-27.12,127.77h.01Zm24.69,276.94c25.2-1.4,46.1-15.5,62.7-42.2,16.6-26.7,23.9-58.4,21.9-95-1.3-22.3-8-38-20.1-47.1-12.2-9.1-26.3-13.2-42.4-12.3-32,1.8-55.7,17.6-71.2,47.3-15.5,29.8-22.4,59.6-20.7,89.7,1.2,21.4,8.8,36.9,22.9,46.6,14,9.6,29.6,13.9,46.9,13h0Z" fill="#1177BB"></path>
<path class="logo-first-part" d="M1485.57,493.62c-.98,4.62-5.06,7.92-9.78,7.92h-119.34c-6.36,0-11.11-5.87-9.78-12.09L1449.4,8.35c.99-4.61,5.06-7.91,9.78-7.91h118.96c6.36,0,11.1,5.86,9.78,12.08-34.12,160.37-68.23,320.73-102.35,481.1Z" fill="#1177BB"></path>
<path class="logo-first-part" d="M1680.09,493.64c-.99,4.61-5.06,7.9-9.78,7.9h-119.35c-6.37,0-11.11-5.87-9.78-12.09l73.32-342.6c.99-4.61,5.06-7.91,9.78-7.91h119.64c6.37,0,11.11,5.87,9.78,12.1-24.53,114.2-49.07,228.4-73.6,342.6h-.01ZM1782.5,12.57l-15.66,75.7c-.96,4.64-5.05,7.97-9.79,7.97h-118.71c-6.33,0-11.06-5.8-9.8-12l15.42-75.7c.95-4.66,5.05-8,9.8-8h118.95c6.34,0,11.08,5.82,9.79,12.03Z" fill="#1177BB"></path>
</g>
<g id="b">
<g>
<path class="logo-second-part" d="M1819.87,149.08c-5.51-.95-9.16-6.11-8.09-11.47,8.59-43.2,27.23-76.19,55.92-98.96,30.81-24.46,71.55-36.7,122.22-36.7s90.04,12.79,115.77,38.37c25.72,25.58,38.59,57.92,38.59,97.01,0,29.94-8.32,58.59-24.94,85.95-16.63,27.37-44.8,56.8-84.51,88.3-27.39,21.45-45.34,36.08-53.85,43.89-5.13,4.72-10.93,10.73-17.38,18.06-5.58,6.33-1,16.13,7.57,16.13h136.98c6.27,0,10.99,5.56,9.83,11.56l-17.93,92.43c-.89,4.6-5.02,7.94-9.83,7.94h-308.01c-6.23,0-10.95-5.51-9.85-11.49,8.37-45.34,24.7-84.35,48.98-117.03,26.31-35.4,63.43-73.1,111.37-113.1l44.02-36.86c18.39-15.41,31.5-29.43,39.32-42.05s11.74-24.51,11.74-35.68c0-17.2-4.8-30.1-14.38-38.71-9.59-8.6-19.86-12.9-30.81-12.9-27.05,0-44.88,21.45-53.49,64.34-1.04,5.2-6.19,8.61-11.53,7.69l-97.69-16.73h-.02Z" fill="#FFBC00"></path>
<path class="logo-second-part" d="M2543.5,13.49l-53.4,279.53c-1.15,6,3.57,11.53,9.83,11.53h31.42c6.25,0,10.96,5.52,9.84,11.51l-16.28,86.39c-.87,4.63-5.01,7.99-9.84,7.99h-37.96c-4.81,0-8.94,3.33-9.83,7.95l-14.54,75.26c-.89,4.61-5.02,7.95-9.83,7.95h-82.36c-6.26,0-10.99-5.55-9.83-11.55l13.14-68.03c1.16-6.01-3.56-11.55-9.83-11.55h-194.81c-6.26,0-10.98-5.54-9.83-11.54l18.98-99.02c.34-1.76,1.17-3.41,2.41-4.75L2439.41,5.17c1.9-2.05,4.59-3.22,7.42-3.22h86.82c6.26,0,10.98,5.54,9.83,11.53h.02Zm-128.6,136.78h0c-.52-.48-1.35-.45-1.83,.08l-128.08,137.91c-5.82,6.27-1.26,16.29,7.41,16.29h85.07c4.81,0,8.94-3.34,9.83-7.95l27.98-145.18c.08-.42-.06-.85-.38-1.14h0Z" fill="#FFBC00"></path>
</g>
</g>
<path class="logo-first-part" d="M227.88,175.99c.46,.42,1.17,.42,1.63,0,19.47-17.79,37-29.84,52.48-35.95,15.7-6.3,34.6-9.4,56.7-9.4,40.8,0,72.1,13.6,93.8,40.7,21.8,27.1,32.6,63.7,32.6,109.7,0,61.5-16.4,115.2-49,161-32.7,45.8-74,68.7-123.9,68.7-43.1,0-77.28-13.75-102.53-41.31-5.47-5.98-15.42-3.23-17.12,4.69l-33.86,158.31c-.99,4.61-5.06,7.91-9.78,7.91H10.07c-6.37,0-11.12-5.88-9.78-12.11L103.98,146.83c.99-4.61,5.06-7.89,9.78-7.89h108.4c6.25,0,10.97,5.68,9.83,11.83l-4.48,24.12c-.08,.41,.06,.82,.37,1.1h0Zm48.31,241.25c25.2-1.4,46.1-15.5,62.7-42.2,16.6-26.7,23.9-58.4,21.9-95-1.3-22.3-8-38-20.1-47.1-12.2-9.1-26.3-13.2-42.4-12.3-32,1.8-55.7,17.6-71.2,47.3-15.5,29.8-22.4,59.6-20.7,89.7,1.2,21.4,8.8,36.9,22.9,46.6,14,9.6,29.6,13.9,46.9,13Z" fill="#1177BB"></path>
<g>
<path class="logo-third-part" d="M2762.01,373.55l-25.83,120.34c-.99,4.61-5.06,7.9-9.78,7.9h-129.12c-6.37,0-11.11-5.87-9.78-12.1l25.83-120.34c.99-4.61,5.06-7.9,9.78-7.9h129.12c6.37,0,11.11,5.87,9.78,12.1Z" fill="#1477bc"></path>
<path class="logo-third-part" d="M3167.27,151.09l-43.3,90.65c-1.96,4.11-6.45,6.34-10.93,5.5-7.73-1.45-14.8-2.17-21.21-2.17-26.7,0-48.38,9.58-65.03,28.75-16.66,19.17-29.55,49.86-38.68,92.07l-27.07,127.96c-.98,4.62-5.06,7.93-9.78,7.93h-119.19c-6.36,0-11.11-5.86-9.78-12.08l73.1-343.16c.98-4.62,5.06-7.92,9.78-7.92h109.82c6.41,0,11.16,5.94,9.76,12.19l-13.21,58.75c-.08,.37,.03,.75,.3,1.02h0c.49,.49,1.3,.4,1.69-.17,21.37-31.56,40.17-52.76,56.41-63.58,16.43-10.95,34.45-16.43,54.08-16.43,11.8,0,24.33,2.31,37.57,6.94,5.61,1.96,8.26,8.39,5.7,13.75Z" fill="#1477bc"></path>
<path class="logo-third-part" d="M3387.56,130.41c65.03,0,112.44,16.43,142.22,49.29,29.78,32.86,44.67,71.31,44.67,115.35,0,33.54-8.56,67.66-25.67,102.34-17.11,34.69-42.84,62.18-77.19,82.49-34.35,20.31-76.62,30.46-126.82,30.46-63.67,0-110.68-15.69-141.02-47.06-30.35-31.37-45.52-70.45-45.52-117.23,0-36.74,9.07-72.22,27.21-106.45,18.14-34.23,44.44-60.98,78.9-80.27,34.45-19.28,75.53-28.92,123.22-28.92Zm-33.89,285.81c26.01,0,46.66-13.29,61.95-39.88,15.29-26.58,22.93-56.08,22.93-88.48,0-23.5-5.82-39.99-17.46-49.46-11.64-9.47-24.53-14.2-38.68-14.2-29.44,0-51.51,13.35-66.23,40.05-14.72,26.7-22.08,53.97-22.08,81.81,0,20.08,5.76,36.79,17.29,50.14,11.52,13.35,25.61,20.02,42.27,20.02Z" fill="#1477bc"></path>
</g>
</svg>