<svg width="109" height="30" viewBox="0 0 109 30" fill="none" xmlns="http://www.w3.org/2000/svg">
<g clip-path="url(#clip0_2475_1009)">
<path fill-rule="evenodd" clip-rule="evenodd" d="M102.698 20.2167H98.9955C97.9587 20.2167 97.1624 20.4695 96.6071 20.9758C96.0519 21.4819 95.774 22.1673 95.774 23.0313C95.774 23.8462 96.0519 24.5069 96.6071 25.0131C97.1624 25.5194 97.9587 25.7722 98.9955 25.7722C99.662 25.7722 100.26 25.6549 100.791 25.4205C101.322 25.186 101.76 24.7846 102.105 24.2167C102.451 23.6489 102.649 22.8587 102.698 21.8462V20.2167ZM103.698 25.4728C103.537 25.9867 103.333 26.4569 103.087 26.8834C102.532 27.8464 101.766 28.5871 100.791 29.1058C99.8164 29.6242 98.6252 29.8835 97.2182 29.8835C95.7617 29.8835 94.4841 29.6242 93.386 29.1058C92.2874 28.5871 91.4297 27.8403 90.8126 26.8651C90.1951 25.8898 89.8867 24.7228 89.8867 23.3646C89.8867 21.8833 90.2693 20.6673 91.0347 19.7167C91.7998 18.7657 92.8737 18.062 94.2557 17.6054C95.6382 17.1486 97.2305 16.9201 99.0323 16.9201H102.698V16.8459C102.698 15.8091 102.451 15.0313 101.958 14.5126C101.464 13.9942 100.674 13.7349 99.588 13.7349C99.0446 13.7349 98.3291 13.7473 97.4402 13.7717C96.5518 13.7964 95.6382 13.8335 94.7002 13.883C93.7623 13.9324 92.9105 13.9818 92.1455 14.0313V9.03082C92.7131 8.98176 93.3796 8.93239 94.1449 8.88286C94.9103 8.83349 95.7 8.79638 96.5147 8.7717C97.329 8.74701 98.0944 8.73459 98.8102 8.73459C100.884 8.73459 102.63 9.03082 104.05 9.62374C105.469 10.2162 106.549 11.1113 107.289 12.3088C108.03 13.5065 108.4 15.0436 108.4 16.9201V29.3651H103.698V25.4728ZM82.1401 0.0177612C84.2495 0.0177612 85.9619 1.73066 85.9619 3.84072C85.9619 5.95063 84.2495 7.66368 82.1401 7.66368C80.0308 7.66368 78.3184 5.95063 78.3184 3.84072C78.3184 1.73066 80.0308 0.0177612 82.1401 0.0177612ZM80.0374 13.4384H77.3346V9.06793H85.9619V29.3651H80.0374V13.4384ZM66.3878 15.7756C66.6143 13.8591 67.1882 12.3148 68.1093 11.1421C69.3311 9.58664 71.1024 8.80881 73.4228 8.80881H74.2004V13.92H72.7193C71.0902 13.92 69.8313 14.3582 68.9424 15.2351C68.054 16.1115 67.6094 17.3769 67.6094 19.0313V29.3651H61.6851V9.06793H66.3878V15.7756ZM32.3829 29.6242C30.2859 29.6242 28.5741 29.3617 27.2942 28.8433C26.0343 28.3327 25.0954 27.4772 24.5038 26.2997C23.9026 25.1068 23.5981 23.4572 23.5981 21.3973L23.6155 13.0198H20.399V8.92437H21.7279C22.7735 8.92437 23.6262 8.08884 23.6283 7.06258L23.6361 3.31352H28.9885V8.92437H34.3053V13.0198H28.9885V21.9118C28.9885 22.9455 29.273 23.7484 29.8343 24.2997C30.3963 24.853 31.202 25.1333 32.2294 25.1333H34.3053V29.6242H32.3829ZM9.38966 29.9947C6.50135 29.9947 4.24274 29.4022 2.61366 28.2168C0.984572 27.0318 0.120355 25.365 0.0214844 23.2167H5.27955C5.37842 23.8587 5.76698 24.4329 6.44587 24.9389C7.12476 25.4451 8.14317 25.6984 9.50079 25.6984C10.5376 25.6984 11.3954 25.5194 12.0741 25.1613C12.753 24.8032 13.0922 24.2909 13.0922 23.6242C13.0922 23.0313 12.8332 22.556 12.3146 22.198C11.7963 21.8399 10.8708 21.5871 9.53789 21.4388L7.94543 21.2906C5.50164 21.0437 3.66885 20.3646 2.44704 19.2535C1.22491 18.1425 0.614245 16.7226 0.614245 14.9942C0.614245 13.562 0.972154 12.3646 1.68814 11.4013C2.40365 10.4384 3.39739 9.70991 4.66856 9.2162C5.94004 8.72233 7.39009 8.47547 9.01933 8.47547C11.6357 8.47547 13.7464 9.04953 15.3511 10.1975C16.9555 11.3459 17.7946 13.0065 17.8688 15.1793H12.611C12.5123 14.5126 12.1667 13.9508 11.5742 13.4942C10.9816 13.0373 10.1055 12.8088 8.94514 12.8088C8.03189 12.8088 7.30364 12.9818 6.76071 13.3275C6.21748 13.6731 5.94602 14.1421 5.94602 14.7351C5.94602 15.3028 6.18038 15.7351 6.64959 16.0313C7.11863 16.3275 7.88366 16.5373 8.94514 16.6609L10.5376 16.8091C13.0304 17.0807 14.9684 17.772 16.3508 18.8833C17.7331 19.9942 18.4244 21.4882 18.4244 23.3646C18.4244 24.7228 18.0541 25.9017 17.3134 26.9021C16.5729 27.9021 15.5237 28.6673 14.1661 29.1984C12.8085 29.7291 11.2163 29.9947 9.38966 29.9947Z" fill="#403F41"/>
<path d="M58.8063 29.6049H38.0127V8.81055H58.7983L58.8063 29.6049ZM42.438 19.2065C42.4485 22.5076 45.1322 25.1753 48.4323 25.165C51.7326 25.1546 54.3996 22.47 54.3892 19.1687C54.3788 15.875 51.7065 13.2104 48.4137 13.2104C45.1114 13.2134 42.4366 15.8925 42.438 19.1958V19.2065Z" fill="#3CC2D0"/>
</g>
<defs>
<clipPath id="clip0_2475_1009">
<rect width="108.421" height="30" fill="white"/>
</clipPath>
</defs>
</svg>
